<?xml version="1.0"?>
<svg width="300" height="100" xmlns="http://www.w3.org/2000/svg" xmlns:svg="http://www.w3.org/2000/svg" class="iconLeftSlogan">
 <!---->
 <defs>
  <!---->
 </defs>
 <defs>
  <!---->
 </defs>
 <defs>
  <linearGradient gradientTransform="rotate(25)" id="ed75371a-7be8-465d-9b36-c4663b641916" x1="0%" x2="100%" y1="0%" y2="0%">
   <stop offset="0%" stop-color="#EB6E00"/>
   <stop offset="100%" stop-color="#F3BCE6"/>
  </linearGradient>
 </defs>
 <defs>
  <!---->
 </defs>
 <g class="layer">
  <title>Layer 1</title>
  <g fill="#36231D" id="7b57a090-5867-4e63-b447-16d53c5324c1" transform="matrix(1.80932 0 0 1.80932 99.821 116.072)">
   <path d="m-1.56,-42.39l0,0l0,-4.7l0,0q0,-0.48 -0.01,-0.9l0,0l0,0q-0.01,-0.41 -0.03,-0.74l0,0l0,0q-0.03,-0.33 -0.07,-0.53l0,0l0,0q0.15,-0.01 0.37,-0.02l0,0l0,0q0.22,-0.01 0.49,-0.01l0,0l0,0q0.27,-0.01 0.57,-0.02l0,0l0,0q0.3,-0.01 0.59,-0.01l0,0l0,0q0.3,0 0.58,-0.01l0,0l0,0q0.28,0 0.51,0l0,0l0,0q0.28,0 0.63,0.03l0,0l0,0q0.35,0.03 0.74,0.12l0,0l0,0q0.38,0.09 0.79,0.25l0,0l0,0q0.41,0.16 0.79,0.42l0,0l0,0q0.38,0.26 0.71,0.63l0,0l0,0q0.34,0.37 0.59,0.88l0,0l0,0q0.25,0.5 0.39,1.16l0,0l0,0q0.15,0.66 0.15,1.5l0,0l0,0q0,1.02 -0.23,1.8l0,0l0,0q-0.22,0.77 -0.6,1.34l0,0l0,0q-0.38,0.57 -0.88,0.95l0,0l0,0q-0.5,0.38 -1.05,0.61l0,0l0,0q-0.54,0.24 -1.1,0.33l0,0l0,0q-0.56,0.1 -1.06,0.1l0,0l0,0q-0.17,0 -0.38,-0.01l0,0l0,0q-0.22,0 -0.46,0l0,0l0,0q-0.24,-0.01 -0.49,-0.01l0,0l0,0q-0.25,-0.01 -0.49,-0.02l0,0l0,0q-0.56,-0.01 -1.16,-0.03l0,0l0,0q0.04,-0.21 0.06,-0.53l0,0l0,0q0.02,-0.32 0.03,-0.72l0,0l0,0q0.01,-0.4 0.01,-0.88l0,0l0,0q0.01,-0.47 0.01,-0.98zm1.3,-5.81l0,7.79l0,0q0.23,0.02 0.62,0.05l0,0l0,0q0.39,0.02 0.88,0.02l0,0l0,0q0.46,0 0.9,-0.09l0,0l0,0q0.45,-0.09 0.86,-0.28l0,0l0,0q0.41,-0.2 0.75,-0.5l0,0l0,0q0.35,-0.31 0.61,-0.74l0,0l0,0q0.25,-0.43 0.39,-0.99l0,0l0,0q0.15,-0.56 0.15,-1.26l0,0l0,0q0,-1.15 -0.29,-1.92l0,0l0,0q-0.29,-0.78 -0.79,-1.24l0,0l0,0q-0.49,-0.47 -1.15,-0.67l0,0l0,0q-0.66,-0.21 -1.4,-0.21l0,0l0,0q-0.17,0 -0.38,0.01l0,0l0,0q-0.21,0 -0.43,0.01l0,0l0,0q-0.21,0.01 -0.4,0.01l0,0l0,0q-0.19,0 -0.32,0.01l0,0zm14.07,5.6l-4.85,0l0,0q0.02,0.61 0.19,1.05l0,0l0,0q0.17,0.44 0.46,0.74l0,0l0,0q0.29,0.29 0.68,0.43l0,0l0,0q0.4,0.14 0.86,0.14l0,0l0,0q0.66,0 1.3,-0.15l0,0l0,0q0.64,-0.15 1.26,-0.53l0,0l0.14,1.13l0,0q-0.36,0.18 -0.71,0.31l0,0l0,0q-0.35,0.13 -0.7,0.21l0,0l0,0q-0.35,0.09 -0.7,0.12l0,0l0,0q-0.36,0.04 -0.76,0.04l0,0l0,0q-0.66,0 -1.25,-0.23l0,0l0,0q-0.6,-0.23 -1.05,-0.68l0,0l0,0q-0.45,-0.44 -0.71,-1.11l0,0l0,0q-0.27,-0.66 -0.27,-1.53l0,0l0,0q0,-0.85 0.23,-1.54l0,0l0,0q0.23,-0.69 0.65,-1.17l0,0l0,0q0.42,-0.49 1.03,-0.76l0,0l0,0q0.61,-0.26 1.37,-0.26l0,0l0,0q0.56,0 0.99,0.13l0,0l0,0q0.43,0.14 0.75,0.37l0,0l0,0q0.31,0.24 0.52,0.55l0,0l0,0q0.21,0.32 0.34,0.68l0,0l0,0q0.13,0.36 0.18,0.76l0,0l0,0q0.06,0.39 0.06,0.77l0,0l0,0.27l0,0q0,0.17 -0.01,0.26l0,0zm-2.93,-2.76l0,0l0,0q-0.75,0 -1.23,0.44l0,0l0,0q-0.48,0.44 -0.63,1.37l0,0l3.57,0l0,0q0,-0.44 -0.13,-0.78l0,0l0,0q-0.13,-0.34 -0.36,-0.57l0,0l0,0q-0.22,-0.23 -0.54,-0.35l0,0l0,0q-0.31,-0.11 -0.68,-0.11zm9.4,-0.89l1.43,0l0,0q-0.14,0.29 -0.29,0.63l0,0l0,0q-0.16,0.34 -0.3,0.67l0,0l0,0q-0.14,0.33 -0.26,0.62l0,0l0,0q-0.12,0.3 -0.21,0.5l0,0l0,0q-0.07,0.17 -0.18,0.45l0,0l0,0q-0.11,0.29 -0.25,0.64l0,0l0,0q-0.14,0.35 -0.3,0.74l0,0l0,0q-0.16,0.4 -0.31,0.78l0,0l0,0q-0.36,0.9 -0.77,1.94l0,0l-1.3,0l0,0q-0.39,-0.99 -0.74,-1.87l0,0l0,0q-0.15,-0.38 -0.31,-0.77l0,0l0,0q-0.16,-0.39 -0.3,-0.75l0,0l0,0q-0.14,-0.36 -0.26,-0.66l0,0l0,0q-0.12,-0.3 -0.2,-0.5l0,0l0,0q-0.08,-0.2 -0.2,-0.5l0,0l0,0q-0.13,-0.3 -0.27,-0.62l0,0l0,0q-0.14,-0.33 -0.29,-0.67l0,0l0,0q-0.15,-0.34 -0.3,-0.63l0,0l1.44,0l2.08,5.6l2.09,-5.6zm5.5,-3.01l1.4,0l0,6.32l0,0q0,1.07 -0.22,1.8l0,0l0,0q-0.22,0.73 -0.61,1.18l0,0l0,0q-0.39,0.45 -0.94,0.65l0,0l0,0q-0.55,0.2 -1.2,0.2l0,0l0,0q-0.25,0 -0.54,-0.04l0,0l0,0q-0.29,-0.05 -0.58,-0.14l0,0l0,0q-0.3,-0.1 -0.56,-0.25l0,0l0,0q-0.26,-0.15 -0.44,-0.36l0,0l0.31,-1.26l0,0q0.17,0.2 0.38,0.35l0,0l0,0q0.21,0.16 0.44,0.26l0,0l0,0q0.23,0.1 0.47,0.16l0,0l0,0q0.24,0.05 0.48,0.05l0,0l0,0q0.38,0 0.69,-0.13l0,0l0,0q0.32,-0.14 0.54,-0.41l0,0l0,0q0.23,-0.28 0.36,-0.7l0,0l0,0q0.12,-0.43 0.12,-1.02l0,0l0,-3.38l0,0q0,-0.5 0,-0.97l0,0l0,0q0,-0.48 -0.01,-0.9l0,0l0,0q-0.01,-0.42 -0.04,-0.78l0,0l0,0q-0.02,-0.36 -0.05,-0.63l0,0zm4.58,6.53l0,0l0,0q0,0.59 0.14,1.06l0,0l0,0q0.15,0.48 0.41,0.8l0,0l0,0q0.26,0.33 0.63,0.5l0,0l0,0q0.36,0.17 0.8,0.17l0,0l0,0q0.41,0 0.78,-0.17l0,0l0,0q0.36,-0.17 0.63,-0.5l0,0l0,0q0.27,-0.32 0.42,-0.8l0,0l0,0q0.15,-0.47 0.15,-1.06l0,0l0,0q0,-0.6 -0.14,-1.08l0,0l0,0q-0.14,-0.47 -0.41,-0.81l0,0l0,0q-0.26,-0.33 -0.62,-0.5l0,0l0,0q-0.37,-0.18 -0.81,-0.18l0,0l0,0q-0.41,0 -0.78,0.18l0,0l0,0q-0.36,0.17 -0.63,0.5l0,0l0,0q-0.26,0.34 -0.42,0.81l0,0l0,0q-0.15,0.48 -0.15,1.08zm-1.26,0l0,0l0,0q0,-0.88 0.26,-1.56l0,0l0,0q0.27,-0.68 0.72,-1.15l0,0l0,0q0.45,-0.47 1.05,-0.71l0,0l0,0q0.6,-0.24 1.28,-0.24l0,0l0,0q0.71,0 1.29,0.24l0,0l0,0q0.58,0.24 1,0.71l0,0l0,0q0.42,0.47 0.66,1.15l0,0l0,0q0.23,0.68 0.23,1.56l0,0l0,0q0,0.88 -0.27,1.56l0,0l0,0q-0.26,0.67 -0.71,1.13l0,0l0,0q-0.46,0.46 -1.06,0.69l0,0l0,0q-0.6,0.24 -1.28,0.24l0,0l0,0q-0.7,0 -1.28,-0.24l0,0l0,0q-0.59,-0.23 -1.01,-0.69l0,0l0,0q-0.42,-0.46 -0.65,-1.13l0,0l0,0q-0.23,-0.68 -0.23,-1.56zm14.32,3.45l-1.27,0l0,-3.76l0,0q0,-0.64 -0.08,-1.06l0,0l0,0q-0.09,-0.42 -0.26,-0.66l0,0l0,0q-0.16,-0.24 -0.42,-0.34l0,0l0,0q-0.26,-0.09 -0.61,-0.09l0,0l0,0q-0.36,0 -0.72,0.17l0,0l0,0q-0.35,0.18 -0.64,0.45l0,0l0,0q-0.3,0.28 -0.52,0.63l0,0l0,0q-0.23,0.35 -0.34,0.7l0,0l0,3.96l-1.26,0l0,-4.2l0,0q0,-1.02 -0.11,-1.72l0,0l0,0q-0.12,-0.7 -0.23,-1.05l0,0l1.23,0l0,0q0.04,0.11 0.08,0.28l0,0l0,0q0.04,0.18 0.07,0.37l0,0l0,0q0.04,0.19 0.07,0.37l0,0l0.05,0.31l0,0q0.65,-0.78 1.31,-1.12l0,0l0,0q0.67,-0.35 1.39,-0.35l0,0l0,0q1.09,0 1.68,0.71l0,0l0,0q0.58,0.72 0.58,2.13l0,0l0,4.27zm1.23,-9.98l7.89,0l0,1.26l0,0q-0.41,-0.08 -0.81,-0.11l0,0l0,0q-0.4,-0.02 -0.86,-0.02l0,0l-1.64,0l0,5.88l0,0q0,1.01 0.02,1.78l0,0l0,0q0.03,0.78 0.11,1.19l0,0l-1.57,0l0,0q0.09,-0.41 0.11,-1.19l0,0l0,0q0.03,-0.77 0.03,-1.78l0,0l0,-5.88l-1.61,0l0,0q-0.46,0 -0.86,0.02l0,0l0,0q-0.4,0.03 -0.81,0.11l0,0l0,-1.26zm13.84,4.96l0,-0.87l0,0q-0.08,-0.02 -0.18,-0.04l0,0l0,0q-0.11,-0.02 -0.25,-0.04l0,0l0,0q-0.14,-0.03 -0.33,-0.04l0,0l0,0q-0.18,-0.01 -0.44,-0.01l0,0l0,0q-0.67,0 -1.11,0.27l0,0l0,0q-0.45,0.27 -0.72,0.72l0,0l0,0q-0.26,0.45 -0.38,1.03l0,0l0,0q-0.11,0.58 -0.11,1.2l0,0l0,0q0,0.39 0.08,0.73l0,0l0,0q0.08,0.33 0.21,0.57l0,0l0,0q0.14,0.24 0.32,0.38l0,0l0,0q0.18,0.13 0.38,0.13l0,0l0,0q0.3,0 0.61,-0.23l0,0l0,0q0.3,-0.24 0.58,-0.6l0,0l0,0q0.28,-0.37 0.53,-0.82l0,0l0,0q0.24,-0.46 0.42,-0.9l0,0l0,0q0.18,-0.45 0.29,-0.85l0,0l0,0q0.1,-0.4 0.1,-0.63l0,0zm1.71,5.02l-1.2,0l0,0q-0.07,-0.16 -0.13,-0.45l0,0l0,0q-0.06,-0.29 -0.1,-0.61l0,0l0,0q-0.03,-0.33 -0.05,-0.65l0,0l0,0q-0.02,-0.32 -0.02,-0.55l0,0l0,-0.54l0,0q-0.21,0.53 -0.49,1.06l0,0l0,0q-0.29,0.53 -0.65,0.95l0,0l0,0q-0.37,0.43 -0.82,0.69l0,0l0,0q-0.45,0.27 -0.98,0.27l0,0l0,0q-0.44,0 -0.81,-0.19l0,0l0,0q-0.38,-0.19 -0.65,-0.57l0,0l0,0q-0.28,-0.37 -0.44,-0.93l0,0l0,0q-0.16,-0.56 -0.16,-1.28l0,0l0,0q0,-0.82 0.22,-1.59l0,0l0,0q0.22,-0.78 0.67,-1.38l0,0l0,0q0.45,-0.61 1.15,-0.97l0,0l0,0q0.7,-0.37 1.66,-0.37l0,0l0,0q0.66,0 1.25,0.09l0,0l0,0q0.59,0.08 1.1,0.22l0,0l0,3.18l0,0q0,1.29 0.13,2.17l0,0l0,0q0.12,0.88 0.32,1.45l0,0zm6.77,-4.55l-1.64,4.55l0,0q-0.36,0.98 -0.7,1.61l0,0l0,0q-0.34,0.62 -0.7,0.98l0,0l0,0q-0.35,0.36 -0.73,0.49l0,0l0,0q-0.38,0.13 -0.81,0.13l0,0l0,0q-0.48,0 -0.89,-0.15l0,0l0,0q-0.41,-0.15 -0.79,-0.43l0,0l0.41,-1.09l0,0q0.11,0.09 0.26,0.18l0,0l0,0q0.15,0.09 0.31,0.16l0,0l0,0q0.17,0.07 0.35,0.12l0,0l0,0q0.18,0.05 0.35,0.05l0,0l0,0q0.2,0 0.4,-0.07l0,0l0,0q0.2,-0.07 0.4,-0.27l0,0l0,0q0.2,-0.21 0.41,-0.57l0,0l0,0q0.22,-0.37 0.45,-0.96l0,0l-1.9,-4.73l0,0q-0.19,-0.46 -0.45,-1.04l0,0l0,0q-0.25,-0.58 -0.65,-1.38l0,0l1.37,0l2.21,5.58l0,0q0.13,-0.37 0.28,-0.8l0,0l0,0q0.16,-0.44 0.32,-0.9l0,0l0,0q0.16,-0.46 0.33,-0.93l0,0l0,0q0.16,-0.46 0.31,-0.9l0,0l0,0q0.36,-1.01 0.72,-2.05l0,0l1.37,0l0,0q-0.18,0.39 -0.32,0.73l0,0l0,0q-0.15,0.34 -0.27,0.64l0,0l0,0q-0.12,0.3 -0.22,0.55l0,0l0,0q-0.1,0.26 -0.18,0.5l0,0zm3.69,-6.39l0,7.69l0,0q0,0.33 0.01,0.78l0,0l0,0q0.01,0.44 0.03,0.9l0,0l0,0q0.01,0.46 0.04,0.87l0,0l0,0q0.02,0.42 0.05,0.7l0,0l-1.4,0l0,-7.72l0,0q0,-1 -0.03,-1.81l0,0l0,0q-0.04,-0.81 -0.1,-1.41l0,0l1.4,0zm3.21,7.49l0,0l0,0q0,0.59 0.14,1.06l0,0l0,0q0.15,0.48 0.41,0.8l0,0l0,0q0.26,0.33 0.63,0.5l0,0l0,0q0.36,0.17 0.8,0.17l0,0l0,0q0.41,0 0.78,-0.17l0,0l0,0q0.36,-0.17 0.63,-0.5l0,0l0,0q0.27,-0.32 0.42,-0.8l0,0l0,0q0.16,-0.47 0.16,-1.06l0,0l0,0q0,-0.6 -0.15,-1.08l0,0l0,0q-0.14,-0.47 -0.4,-0.81l0,0l0,0q-0.27,-0.33 -0.63,-0.5l0,0l0,0q-0.37,-0.18 -0.81,-0.18l0,0l0,0q-0.41,0 -0.78,0.18l0,0l0,0q-0.36,0.17 -0.62,0.5l0,0l0,0q-0.27,0.34 -0.43,0.81l0,0l0,0q-0.15,0.48 -0.15,1.08zm-1.26,0l0,0l0,0q0,-0.88 0.26,-1.56l0,0l0,0q0.27,-0.68 0.72,-1.15l0,0l0,0q0.45,-0.47 1.05,-0.71l0,0l0,0q0.6,-0.24 1.28,-0.24l0,0l0,0q0.71,0 1.29,0.24l0,0l0,0q0.58,0.24 1.01,0.71l0,0l0,0q0.42,0.47 0.65,1.15l0,0l0,0q0.23,0.68 0.23,1.56l0,0l0,0q0,0.88 -0.27,1.56l0,0l0,0q-0.26,0.67 -0.71,1.13l0,0l0,0q-0.46,0.46 -1.06,0.69l0,0l0,0q-0.6,0.24 -1.28,0.24l0,0l0,0q-0.7,0 -1.28,-0.24l0,0l0,0q-0.59,-0.23 -1.01,-0.69l0,0l0,0q-0.42,-0.46 -0.65,-1.13l0,0l0,0q-0.23,-0.68 -0.23,-1.56zm9.46,3.45l-1.26,0l0,-4.2l0,0q0,-1.02 -0.11,-1.72l0,0l0,0q-0.12,-0.7 -0.23,-1.05l0,0l1.23,0l0,0q0.04,0.11 0.08,0.28l0,0l0,0q0.04,0.18 0.08,0.37l0,0l0,0q0.03,0.19 0.06,0.37l0,0l0.05,0.31l0,0q0.25,-0.36 0.54,-0.63l0,0l0,0q0.29,-0.27 0.59,-0.46l0,0l0,0q0.29,-0.19 0.58,-0.28l0,0l0,0q0.28,-0.1 0.51,-0.1l0,0l0,0q0.43,0 0.73,0.19l0,0l0,0q0.3,0.19 0.49,0.5l0,0l0,0q0.18,0.32 0.27,0.74l0,0l0,0q0.09,0.41 0.09,0.86l0,0l-1.1,0.24l0,0q0,-0.25 -0.05,-0.49l0,0l0,0q-0.04,-0.23 -0.14,-0.42l0,0l0,0q-0.1,-0.18 -0.24,-0.28l0,0l0,0q-0.15,-0.11 -0.35,-0.11l0,0l0,0q-0.22,0 -0.49,0.17l0,0l0,0q-0.27,0.17 -0.52,0.44l0,0l0,0q-0.26,0.27 -0.48,0.61l0,0l0,0q-0.22,0.35 -0.33,0.7l0,0l0,3.96z" fill="#ffffff" id="svg_2"/>
  </g>
  <g fill="url(#ed75371a-7be8-465d-9b36-c4663b641916)" id="fe52f8f1-4021-448e-b7aa-2231e1fcad70" transform="matrix(1.52479 0 0 1.52479 40 125.603)">
   <path d="m6.29,-46.43l8.06,4.47l8.07,-4.47l0,-8.94l-8.07,-4.46l-8.06,4.46l0,8.94z" id="svg_3"/>
   <path d="m28.72,-66.89l-32,0l0,32l32,0l-5.05,-5.17l-21.9,0l0,-21.66l21.9,0l5.05,-5.17z" id="svg_4"/>
  </g>
  <g fill="#36231D" id="a43dea47-eb18-4e4d-aadd-4122830f6a0d" transform="matrix(0.573463 0 0 0.573463 101.587 159.538)">
   <path d="m-4.32,-170.89l-1.36,3.77l2.68,0l-1.32,-3.77zm-1.32,7.42l-2.72,0l0.03,-0.29l0.97,-0.21l2.99,-8.08l0.37,-0.09l2.83,8.22l0.91,0.13l-0.06,0.31l-2.79,0l0.06,-0.29l1.13,-0.2l-0.95,-2.77l-2.95,0l-1.01,2.82l1.25,0.13l-0.06,0.32zm14.28,-8.07l-1.24,-0.17l0.03,-0.27l3.1,0l-0.03,0.27l-1.15,0.16l0,4.69l0,0q0,0.86 0.18,1.48l0,0l0,0q0.18,0.61 0.53,0.96l0,0l0,0q0.35,0.34 0.79,0.5l0,0l0,0q0.45,0.16 1.04,0.16l0,0l0,0q1.18,0 1.82,-0.71l0,0l0,0q0.64,-0.72 0.64,-2.07l0,0l0,-5l-1.27,-0.17l0.03,-0.27l2.91,0l-0.06,0.27l-1.13,0.16l-0.02,4.73l0,0q-0.01,1.73 -0.75,2.63l0,0l0,0q-0.73,0.9 -2.4,0.9l0,0l0,0q-0.49,0 -0.92,-0.09l0,0l0,0q-0.42,-0.09 -0.82,-0.33l0,0l0,0q-0.39,-0.23 -0.67,-0.6l0,0l0,0q-0.28,-0.37 -0.45,-0.96l0,0l0,0q-0.16,-0.59 -0.16,-1.36l0,0l0,-4.91zm15.12,1.76l-0.06,-2.2l7.06,0l-0.24,2.27l-0.34,-0.04l-0.12,-1.88l-2.54,0l0,7.66l1.21,0.18l-0.07,0.32l-3.1,0l0.04,-0.29l1.19,-0.21l0,-7.66l-2.43,0l-0.24,1.91l-0.36,-0.06zm15.49,1.66l0,0l0,0q0,1.28 0.36,2.26l0,0l0,0q0.36,0.99 1.08,1.56l0,0l0,0q0.72,0.57 1.7,0.57l0,0l0,0q0.57,0 1.06,-0.22l0,0l0,0q0.49,-0.22 0.84,-0.59l0,0l0,0q0.34,-0.37 0.59,-0.84l0,0l0,0q0.24,-0.48 0.36,-0.99l0,0l0,0q0.11,-0.51 0.11,-1.02l0,0l0,0q0,-1.98 -0.85,-3.19l0,0l0,0q-0.85,-1.22 -2.3,-1.22l0,0l0,0q-0.58,0 -1.07,0.21l0,0l0,0q-0.49,0.21 -0.84,0.57l0,0l0,0q-0.34,0.36 -0.58,0.84l0,0l0,0q-0.24,0.47 -0.35,1l0,0l0,0q-0.11,0.52 -0.11,1.06zm-0.75,0.41l0,0l0,0q0,-2 1.09,-3.24l0,0l0,0q1.1,-1.23 2.94,-1.23l0,0l0,0q1.13,0 1.95,0.58l0,0l0,0q0.82,0.59 1.21,1.57l0,0l0,0q0.4,0.99 0.4,2.27l0,0l0,0q0,0.64 -0.15,1.27l0,0l0,0q-0.15,0.62 -0.47,1.2l0,0l0,0q-0.33,0.59 -0.79,1.03l0,0l0,0q-0.46,0.44 -1.14,0.71l0,0l0,0q-0.68,0.26 -1.48,0.26l0,0l0,0q-1.06,0 -1.88,-0.6l0,0l0,0q-0.82,-0.61 -1.25,-1.61l0,0l0,0q-0.43,-1 -0.43,-2.21zm18.12,4.24l-2.83,0l0.03,-0.23l1.14,-0.21l0.57,-7.6l-1.26,-0.22l0.05,-0.25l2.18,0l0.49,1.29l2.14,5.66l2.45,-5.96l0.42,-0.99l2.23,0l-0.04,0.25l-1.17,0.2l0.37,7.67l1.23,0.11l-0.01,0.28l-3.16,0l0.04,-0.23l1.17,-0.21l-0.39,-7.55l-3.18,7.58l-0.34,0.06l-2.79,-7.52l-0.54,7.48l1.24,0.11l-0.04,0.28zm19.76,-7.42l-1.37,3.77l2.69,0l-1.32,-3.77zm-1.32,7.42l-2.73,0l0.04,-0.29l0.97,-0.21l2.99,-8.08l0.37,-0.09l2.83,8.22l0.9,0.13l-0.05,0.31l-2.8,0l0.07,-0.29l1.13,-0.2l-0.95,-2.77l-2.95,0l-1.02,2.82l1.26,0.13l-0.06,0.32zm13.13,-6.31l-0.07,-2.2l7.06,0l-0.24,2.27l-0.34,-0.04l-0.12,-1.88l-2.53,0l0,7.66l1.21,0.18l-0.08,0.32l-3.1,0l0.04,-0.29l1.19,-0.21l0,-7.66l-2.43,0l-0.24,1.91l-0.35,-0.06zm15.92,-1.73l-1.22,-0.18l0.05,-0.29l6.19,0l-0.21,2.18l-0.31,-0.04l-0.13,-1.79l-3.66,0l0,3.65l2.29,0l0.26,-0.95l0.37,-0.05l-0.23,2.66l-0.35,0.06l-0.11,-1.35l-2.23,0l0,3.77l3.85,0l0.5,-1.84l0.28,0.07l-0.2,2.14l-6.34,0l0.04,-0.29l1.16,-0.21l0,-7.54zm24.19,0l-1.22,-0.18l0.04,-0.29l6.2,0l-0.21,2.18l-0.32,-0.04l-0.13,-1.79l-3.65,0l0,3.65l2.29,0l0.25,-0.95l0.37,-0.05l-0.22,2.66l-0.35,0.06l-0.11,-1.35l-2.23,0l0,3.77l3.84,0l0.51,-1.84l0.28,0.07l-0.21,2.14l-6.33,0l0.04,-0.29l1.16,-0.21l0,-7.54zm14.03,-0.02l-1,-0.2l0.03,-0.25l2.89,0l-0.02,0.25l-1.15,0.18l2.36,6.98l2.58,-6.96l-1.27,-0.2l0.02,-0.25l2.67,0l-0.03,0.25l-0.88,0.18l-3.02,8.15l-0.35,0.1l-2.83,-8.23zm16.03,0.02l-1.23,-0.18l0.05,-0.29l6.19,0l-0.21,2.18l-0.31,-0.04l-0.13,-1.79l-3.65,0l0,3.65l2.29,0l0.25,-0.95l0.37,-0.05l-0.23,2.66l-0.34,0.06l-0.11,-1.35l-2.23,0l0,3.77l3.84,0l0.51,-1.84l0.28,0.07l-0.21,2.14l-6.34,0l0.05,-0.29l1.16,-0.21l0,-7.54zm14.87,-0.18l0,3.93l1.55,0l0,0q0.68,-0.25 1.14,-0.83l0,0l0,0q0.46,-0.58 0.46,-1.26l0,0l0,0q0,-0.91 -0.62,-1.39l0,0l0,0q-0.62,-0.48 -1.71,-0.48l0,0l-0.82,0.03zm1.37,8.22l-3.19,0l0.04,-0.29l1.07,-0.21l0,-7.39l-1.09,-0.14l0.06,-0.24l0,0q1.82,-0.3 2.9,-0.3l0,0l0,0q0.77,0 1.38,0.22l0,0l0,0q0.61,0.22 0.98,0.68l0,0l0,0q0.38,0.46 0.38,1.1l0,0l0,0q0,0.74 -0.43,1.31l0,0l0,0q-0.43,0.58 -1.46,1.09l0,0l0,0l1.32,1.96l0,0q0.71,1.04 1.06,1.39l0,0l0,0q0.34,0.34 0.73,0.47l0,0l0.32,0.11l-0.04,0.26l0,0q-0.29,0.1 -0.63,0.1l0,0l0,0q-0.29,0 -0.54,-0.12l0,0l0,0q-0.26,-0.12 -0.5,-0.39l0,0l0,0q-0.24,-0.26 -0.43,-0.53l0,0l0,0q-0.18,-0.26 -0.45,-0.71l0,0l-1.39,-2.28l-1.46,0l0,3.46l1.44,0.13l-0.07,0.32zm12.7,-8.05l-0.95,-0.2l0.03,-0.25l2.85,0l-0.03,0.25l-1.13,0.17l2.14,4.17l2.11,-4.15l-1.26,-0.2l0.01,-0.25l2.67,0l-0.02,0.25l-0.88,0.18l-2.39,4.73l0,2.89l1.24,0.14l-0.06,0.32l-3.14,0l0.04,-0.29l1.2,-0.21l0,-2.85l-2.43,-4.7zm14.21,1.74l-0.07,-2.2l7.06,0l-0.24,2.27l-0.34,-0.04l-0.12,-1.88l-2.53,0l0,7.66l1.21,0.18l-0.08,0.32l-3.1,0l0.04,-0.29l1.19,-0.21l0,-7.66l-2.43,0l-0.24,1.91l-0.35,-0.06zm15.92,-1.76l-1.23,-0.17l0.02,-0.27l3.12,0l-0.03,0.27l-1.16,0.16l0,3.63l4.91,0l0,-3.62l-1.26,-0.17l0.05,-0.27l3.11,0l-0.05,0.27l-1.15,0.16l0,7.63l1.25,0.13l-0.04,0.32l-3.1,0l0.05,-0.29l1.14,-0.21l0,-3.54l-4.91,0l0,3.59l1.27,0.13l-0.07,0.32l-3.09,0l0.03,-0.29l1.14,-0.21l0,-7.57zm16.46,0l-1.19,-0.17l0.05,-0.27l3.12,0l-0.05,0.27l-1.19,0.16l0,7.63l1.32,0.13l-0.07,0.32l-3.11,0l0.04,-0.29l1.08,-0.21l0,-7.57zm11.01,0.03l-1.26,-0.22l0.05,-0.25l2.07,0l4.73,7.28l0,-6.84l-1.26,-0.17l0.05,-0.27l2.89,0l-0.05,0.27l-1.14,0.16l0,8.12l-0.37,0.08l-5.2,-7.87l0,7.3l1.25,0.13l-0.06,0.32l-2.88,0l0.04,-0.29l1.14,-0.21l0,-7.54zm14.98,3.91l0,0l0,0q0,-0.63 0.18,-1.27l0,0l0,0q0.17,-0.64 0.51,-1.22l0,0l0,0q0.35,-0.57 0.83,-1.03l0,0l0,0q0.48,-0.45 1.15,-0.71l0,0l0,0q0.66,-0.27 1.42,-0.27l0,0l0,0q0.74,0 1.44,0.17l0,0l0,0q0.71,0.17 1.18,0.53l0,0l-0.2,2.17l-0.31,-0.03l-0.21,-1.62l0,0q-0.27,-0.34 -0.82,-0.58l0,0l0,0q-0.54,-0.24 -1.3,-0.24l0,0l0,0q-1.41,0 -2.25,1.1l0,0l0,0q-0.84,1.1 -0.84,2.8l0,0l0,0q0,0.62 0.11,1.18l0,0l0,0q0.11,0.56 0.37,1.09l0,0l0,0q0.25,0.53 0.63,0.91l0,0l0,0q0.38,0.38 0.97,0.61l0,0l0,0q0.58,0.23 1.31,0.23l0,0l0,0q1.06,0 1.78,-0.5l0,0l0.02,-2.56l-1.65,-0.17l0.04,-0.26l3.28,0l-0.05,0.26l-0.91,0.15l0,2.85l0,0q-0.65,0.39 -1.39,0.53l0,0l0,0q-0.74,0.14 -1.83,0.14l0,0l0,0q-0.7,0 -1.33,-0.3l0,0l0,0q-0.64,-0.3 -1.1,-0.84l0,0l0,0q-0.47,-0.54 -0.75,-1.35l0,0l0,0q-0.28,-0.81 -0.28,-1.77z" fill="#ffffff" id="svg_5"/>
  </g>
 </g>
</svg>