<?xml version="1.0" encoding="utf-8"?>
<!-- Generator: Adobe Illustrator 26.2.1, SVG Export Plug-In . SVG Version: 6.00 Build 0)  -->
<svg version="1.1" id="Layer_1" xmlns:svg="http://www.w3.org/2000/svg"
	 xmlns="http://www.w3.org/2000/svg" xmlns:xlink="http://www.w3.org/1999/xlink" x="0px" y="0px" viewBox="0 0 229 55.7"
	 style="enable-background:new 0 0 229 55.7;" xml:space="preserve">
<style type="text/css">
	.st0{fill:#FFFFFF;}
	.st1{fill:url(#svg_3_00000066488304985854289210000008409690600073299340_);}
	.st2{fill:url(#svg_4_00000106852737652266845150000010041372783910294153_);}
</style>
<g>
	<g id="_x37_b57a090-5867-4e63-b447-16d53c5324c1" transform="matrix(1.80932 0 0 1.80932 99.821 116.072)">
		<path id="svg_2" class="st0" d="M-18.1-53.4L-18.1-53.4v-4.7l0,0c0-0.3,0-0.6,0-0.9l0,0l0,0c0-0.3,0-0.5,0-0.7l0,0l0,0
			c0-0.2,0-0.4-0.1-0.5l0,0l0,0c0.1,0,0.2,0,0.4,0l0,0l0,0c0.1,0,0.3,0,0.5,0l0,0l0,0c0.2,0,0.4,0,0.6,0l0,0l0,0c0.2,0,0.4,0,0.6,0
			l0,0l0,0c0.2,0,0.4,0,0.6,0l0,0l0,0c0.2,0,0.4,0,0.5,0l0,0l0,0c0.2,0,0.4,0,0.6,0l0,0l0,0c0.2,0,0.5,0.1,0.7,0.1l0,0l0,0
			c0.3,0.1,0.5,0.1,0.8,0.2l0,0l0,0c0.3,0.1,0.5,0.2,0.8,0.4l0,0l0,0c0.3,0.2,0.5,0.4,0.7,0.6l0,0l0,0c0.2,0.2,0.4,0.5,0.6,0.9l0,0
			l0,0c0.2,0.3,0.3,0.7,0.4,1.2l0,0l0,0c0.1,0.4,0.2,0.9,0.1,1.5l0,0l0,0c0,0.7-0.1,1.3-0.2,1.8l0,0l0,0c-0.1,0.5-0.3,1-0.6,1.3l0,0
			l0,0c-0.3,0.4-0.5,0.7-0.9,1l0,0l0,0c-0.3,0.3-0.7,0.5-1,0.6l0,0l0,0c-0.4,0.2-0.7,0.3-1.1,0.3l0,0l0,0c-0.4,0.1-0.7,0.1-1.1,0.1
			l0,0l0,0c-0.1,0-0.2,0-0.4,0l0,0l0,0c-0.1,0-0.3,0-0.5,0l0,0l0,0c-0.2,0-0.3,0-0.5,0l0,0l0,0c-0.2,0-0.3,0-0.5,0l0,0l0,0
			c-0.4,0-0.8,0-1.2,0l0,0l0,0c0-0.1,0-0.3,0.1-0.5l0,0l0,0c0-0.2,0-0.5,0-0.7l0,0l0,0c0-0.3,0-0.6,0-0.9l0,0l0,0
			C-18.1-52.8-18.1-53.1-18.1-53.4z M-16.8-59.3v7.8l0,0c0.2,0,0.4,0,0.6,0l0,0l0,0c0.3,0,0.6,0,0.9,0l0,0l0,0c0.3,0,0.6,0,0.9-0.1
			l0,0l0,0c0.3-0.1,0.6-0.2,0.9-0.3l0,0l0,0c0.3-0.1,0.5-0.3,0.8-0.5l0,0l0,0c0.2-0.2,0.4-0.5,0.6-0.7l0,0l0,0
			c0.2-0.3,0.3-0.6,0.4-1l0,0l0,0c0.1-0.4,0.2-0.8,0.2-1.3l0,0l0,0c0-0.8-0.1-1.4-0.3-1.9l0,0l0,0c-0.2-0.5-0.5-0.9-0.8-1.2l0,0l0,0
			c-0.3-0.3-0.7-0.5-1.2-0.7l0,0l0,0c-0.4-0.1-0.9-0.2-1.4-0.2l0,0l0,0c-0.1,0-0.2,0-0.4,0l0,0l0,0c-0.1,0-0.3,0-0.4,0l0,0l0,0
			c-0.1,0-0.3,0-0.4,0l0,0l0,0C-16.6-59.3-16.8-59.3-16.8-59.3C-16.8-59.3-16.8-59.3-16.8-59.3z M-2.8-53.7h-4.9l0,0
			c0,0.4,0.1,0.8,0.2,1l0,0l0,0c0.1,0.3,0.3,0.5,0.5,0.7l0,0l0,0c0.2,0.2,0.4,0.3,0.7,0.4l0,0l0,0c0.3,0.1,0.6,0.1,0.9,0.1l0,0l0,0
			c0.4,0,0.9-0.1,1.3-0.2l0,0l0,0c0.4-0.1,0.8-0.3,1.3-0.5l0,0l0.1,1.1l0,0c-0.2,0.1-0.5,0.2-0.7,0.3l0,0l0,0
			c-0.2,0.1-0.5,0.2-0.7,0.2l0,0l0,0c-0.2,0.1-0.5,0.1-0.7,0.1l0,0l0,0c-0.2,0-0.5,0-0.8,0l0,0l0,0c-0.4,0-0.9-0.1-1.2-0.2l0,0l0,0
			c-0.4-0.2-0.8-0.4-1.1-0.7l0,0l0,0c-0.3-0.3-0.5-0.7-0.7-1.1l0,0l0,0c-0.2-0.4-0.3-1-0.3-1.5l0,0l0,0c0-0.6,0.1-1.1,0.2-1.5l0,0
			l0,0c0.2-0.5,0.4-0.8,0.6-1.2l0,0l0,0c0.3-0.3,0.6-0.6,1-0.8l0,0l0,0c0.4-0.2,0.9-0.3,1.4-0.3l0,0l0,0c0.4,0,0.7,0,1,0.1l0,0l0,0
			c0.3,0.1,0.5,0.2,0.7,0.4l0,0l0,0c0.2,0.2,0.4,0.3,0.5,0.5l0,0l0,0c0.1,0.2,0.3,0.4,0.3,0.7l0,0l0,0c0.1,0.2,0.1,0.5,0.2,0.8l0,0
			l0,0c0,0.3,0.1,0.5,0.1,0.8l0,0v0.3l0,0C-2.8-53.8-2.8-53.7-2.8-53.7C-2.8-53.7-2.8-53.7-2.8-53.7z M-5.7-56.4L-5.7-56.4
			L-5.7-56.4c-0.5,0-0.9,0.1-1.2,0.4l0,0l0,0c-0.3,0.3-0.5,0.8-0.6,1.4l0,0H-4l0,0c0-0.3,0-0.6-0.1-0.8l0,0l0,0
			c-0.1-0.2-0.2-0.4-0.4-0.6l0,0l0,0c-0.1-0.2-0.3-0.3-0.5-0.3l0,0l0,0C-5.2-56.4-5.5-56.4-5.7-56.4z M3.7-57.3h1.4l0,0
			c-0.1,0.2-0.2,0.4-0.3,0.6l0,0l0,0c-0.1,0.2-0.2,0.5-0.3,0.7l0,0l0,0c-0.1,0.2-0.2,0.4-0.3,0.6l0,0l0,0c-0.1,0.2-0.1,0.4-0.2,0.5
			l0,0l0,0c0,0.1-0.1,0.3-0.2,0.5l0,0l0,0c-0.1,0.2-0.2,0.4-0.2,0.6l0,0l0,0c-0.1,0.2-0.2,0.5-0.3,0.7l0,0l0,0
			c-0.1,0.3-0.2,0.5-0.3,0.8l0,0l0,0c-0.2,0.6-0.5,1.2-0.8,1.9l0,0H1l0,0c-0.3-0.7-0.5-1.3-0.7-1.9l0,0l0,0C0.1-52.5,0-52.7-0.1-53
			l0,0l0,0c-0.1-0.3-0.2-0.5-0.3-0.8l0,0l0,0c-0.1-0.2-0.2-0.5-0.3-0.7l0,0l0,0c-0.1-0.2-0.1-0.4-0.2-0.5l0,0l0,0
			C-0.9-55-1-55.2-1.1-55.4l0,0l0,0c-0.1-0.2-0.2-0.4-0.3-0.6l0,0l0,0c-0.1-0.2-0.2-0.4-0.3-0.7l0,0l0,0c-0.1-0.2-0.2-0.4-0.3-0.6
			l0,0h1.4l2.1,5.6C1.6-51.7,3.7-57.3,3.7-57.3z M9.2-60.3h1.4v6.3l0,0c0,0.7-0.1,1.3-0.2,1.8l0,0l0,0c-0.1,0.5-0.3,0.9-0.6,1.2l0,0
			l0,0c-0.3,0.3-0.6,0.5-0.9,0.7l0,0l0,0c-0.4,0.1-0.8,0.2-1.2,0.2l0,0l0,0c-0.2,0-0.3,0-0.5,0l0,0l0,0c-0.2,0-0.4-0.1-0.6-0.1l0,0
			l0,0c-0.2-0.1-0.4-0.2-0.6-0.2l0,0l0,0c-0.2-0.1-0.3-0.2-0.4-0.4l0,0l0.3-1.3l0,0c0.1,0.1,0.2,0.2,0.4,0.3l0,0l0,0
			c0.1,0.1,0.3,0.2,0.4,0.3l0,0l0,0c0.2,0.1,0.3,0.1,0.5,0.2l0,0l0,0c0.2,0,0.3,0,0.5,0l0,0l0,0c0.3,0,0.5,0,0.7-0.1l0,0l0,0
			c0.2-0.1,0.4-0.2,0.5-0.4l0,0l0,0c0.2-0.2,0.3-0.4,0.4-0.7l0,0l0,0c0.1-0.3,0.1-0.6,0.1-1l0,0V-57l0,0c0-0.3,0-0.7,0-1l0,0l0,0
			c0-0.3,0-0.6,0-0.9l0,0l0,0c0-0.3,0-0.5,0-0.8l0,0l0,0C9.2-59.9,9.2-60.1,9.2-60.3L9.2-60.3L9.2-60.3z M13.8-53.8L13.8-53.8
			L13.8-53.8c0,0.4,0,0.7,0.1,1.1l0,0l0,0c0.1,0.3,0.2,0.6,0.4,0.8l0,0l0,0c0.2,0.2,0.4,0.4,0.6,0.5l0,0l0,0
			c0.2,0.1,0.5,0.2,0.8,0.2l0,0l0,0c0.3,0,0.5-0.1,0.8-0.2l0,0l0,0c0.2-0.1,0.5-0.3,0.6-0.5l0,0l0,0c0.2-0.2,0.3-0.5,0.4-0.8l0,0
			l0,0c0.1-0.3,0.2-0.7,0.2-1.1l0,0l0,0c0-0.4,0-0.8-0.1-1.1l0,0l0,0c-0.1-0.3-0.2-0.6-0.4-0.8l0,0l0,0c-0.2-0.2-0.4-0.4-0.6-0.5
			l0,0l0,0c-0.2-0.1-0.5-0.2-0.8-0.2l0,0l0,0c-0.3,0-0.5,0.1-0.8,0.2l0,0l0,0c-0.2,0.1-0.5,0.3-0.6,0.5l0,0l0,0
			c-0.2,0.2-0.3,0.5-0.4,0.8l0,0l0,0C13.8-54.5,13.8-54.2,13.8-53.8z M12.5-53.8L12.5-53.8L12.5-53.8c0-0.6,0.1-1.1,0.3-1.6l0,0l0,0
			c0.2-0.5,0.4-0.8,0.7-1.2l0,0l0,0c0.3-0.3,0.6-0.5,1-0.7l0,0l0,0c0.4-0.2,0.8-0.2,1.3-0.2l0,0l0,0c0.5,0,0.9,0.1,1.3,0.2l0,0l0,0
			c0.4,0.2,0.7,0.4,1,0.7l0,0l0,0c0.3,0.3,0.5,0.7,0.7,1.2l0,0l0,0c0.2,0.5,0.2,1,0.2,1.6l0,0l0,0c0,0.6-0.1,1.1-0.3,1.6l0,0l0,0
			c-0.2,0.4-0.4,0.8-0.7,1.1l0,0l0,0c-0.3,0.3-0.7,0.5-1.1,0.7l0,0l0,0c-0.4,0.2-0.8,0.2-1.3,0.2l0,0l0,0c-0.5,0-0.9-0.1-1.3-0.2
			l0,0l0,0c-0.4-0.2-0.7-0.4-1-0.7l0,0l0,0c-0.3-0.3-0.5-0.7-0.6-1.1l0,0l0,0C12.6-52.7,12.5-53.2,12.5-53.8z M26.8-50.3h-1.3v-3.8
			l0,0c0-0.4,0-0.8-0.1-1.1l0,0l0,0c-0.1-0.3-0.1-0.5-0.3-0.7l0,0l0,0c-0.1-0.2-0.2-0.3-0.4-0.3l0,0l0,0c-0.2-0.1-0.4-0.1-0.6-0.1
			l0,0l0,0c-0.2,0-0.5,0.1-0.7,0.2l0,0l0,0c-0.2,0.1-0.4,0.3-0.6,0.5l0,0l0,0c-0.2,0.2-0.4,0.4-0.5,0.6l0,0l0,0
			c-0.2,0.2-0.3,0.5-0.3,0.7l0,0v4h-1.3v-4.2l0,0c0-0.7,0-1.3-0.1-1.7l0,0l0,0c-0.1-0.5-0.2-0.8-0.2-1l0,0h1.2l0,0
			c0,0.1,0.1,0.2,0.1,0.3l0,0l0,0c0,0.1,0.1,0.2,0.1,0.4l0,0l0,0c0,0.1,0,0.2,0.1,0.4l0,0l0,0.3l0,0c0.4-0.5,0.9-0.9,1.3-1.1l0,0
			l0,0c0.4-0.2,0.9-0.3,1.4-0.3l0,0l0,0c0.7,0,1.3,0.2,1.7,0.7l0,0l0,0c0.4,0.5,0.6,1.2,0.6,2.1l0,0C26.8-54.6,26.8-50.3,26.8-50.3z
			 M28.1-60.3H36v1.3l0,0c-0.3-0.1-0.5-0.1-0.8-0.1l0,0l0,0c-0.3,0-0.6,0-0.9,0l0,0h-1.6v5.9l0,0c0,0.7,0,1.3,0,1.8l0,0l0,0
			c0,0.5,0.1,0.9,0.1,1.2l0,0h-1.6l0,0c0.1-0.3,0.1-0.7,0.1-1.2l0,0l0,0c0-0.5,0-1.1,0-1.8l0,0v-5.9h-1.6l0,0c-0.3,0-0.6,0-0.9,0
			l0,0l0,0c-0.3,0-0.5,0.1-0.8,0.1l0,0C28.1-59.1,28.1-60.3,28.1-60.3z M41.9-55.4v-0.9l0,0c-0.1,0-0.1,0-0.2,0l0,0l0,0
			c-0.1,0-0.2,0-0.2,0l0,0l0,0c-0.1,0-0.2,0-0.3,0l0,0l0,0c-0.1,0-0.3,0-0.4,0l0,0l0,0c-0.4,0-0.8,0.1-1.1,0.3l0,0l0,0
			c-0.3,0.2-0.5,0.4-0.7,0.7l0,0l0,0c-0.2,0.3-0.3,0.6-0.4,1l0,0l0,0c-0.1,0.4-0.1,0.8-0.1,1.2l0,0l0,0c0,0.3,0,0.5,0.1,0.7l0,0l0,0
			c0.1,0.2,0.1,0.4,0.2,0.6l0,0l0,0c0.1,0.2,0.2,0.3,0.3,0.4l0,0l0,0c0.1,0.1,0.2,0.1,0.4,0.1l0,0l0,0c0.2,0,0.4-0.1,0.6-0.2l0,0
			l0,0c0.2-0.2,0.4-0.4,0.6-0.6l0,0l0,0c0.2-0.2,0.4-0.5,0.5-0.8l0,0l0,0c0.2-0.3,0.3-0.6,0.4-0.9l0,0l0,0c0.1-0.3,0.2-0.6,0.3-0.8
			l0,0l0,0C41.9-55,41.9-55.2,41.9-55.4C41.9-55.4,41.9-55.4,41.9-55.4z M43.6-50.3h-1.2l0,0c0-0.1-0.1-0.3-0.1-0.5l0,0l0,0
			c0-0.2-0.1-0.4-0.1-0.6l0,0l0,0c0-0.2,0-0.4,0-0.7l0,0l0,0c0-0.2,0-0.4,0-0.5l0,0v-0.5l0,0c-0.1,0.4-0.3,0.7-0.5,1.1l0,0l0,0
			c-0.2,0.4-0.4,0.7-0.7,1l0,0l0,0c-0.2,0.3-0.5,0.5-0.8,0.7l0,0l0,0c-0.3,0.2-0.6,0.3-1,0.3l0,0l0,0c-0.3,0-0.6-0.1-0.8-0.2l0,0
			l0,0c-0.3-0.1-0.5-0.3-0.7-0.6l0,0l0,0c-0.2-0.2-0.3-0.6-0.4-0.9l0,0l0,0c-0.1-0.4-0.2-0.8-0.2-1.3l0,0l0,0c0-0.5,0.1-1.1,0.2-1.6
			l0,0l0,0c0.1-0.5,0.4-1,0.7-1.4l0,0l0,0c0.3-0.4,0.7-0.7,1.2-1l0,0l0,0c0.5-0.2,1-0.4,1.7-0.4l0,0l0,0c0.4,0,0.9,0,1.2,0.1l0,0
			l0,0c0.4,0.1,0.8,0.1,1.1,0.2l0,0v3.2l0,0c0,0.9,0,1.6,0.1,2.2l0,0l0,0C43.4-51.2,43.5-50.7,43.6-50.3
			C43.6-50.3,43.6-50.3,43.6-50.3z M50.4-54.9l-1.6,4.5l0,0c-0.2,0.7-0.5,1.2-0.7,1.6l0,0l0,0c-0.2,0.4-0.5,0.7-0.7,1l0,0l0,0
			c-0.2,0.2-0.5,0.4-0.7,0.5l0,0l0,0c-0.3,0.1-0.5,0.1-0.8,0.1l0,0l0,0c-0.3,0-0.6,0-0.9-0.2l0,0l0,0c-0.3-0.1-0.5-0.2-0.8-0.4l0,0
			l0.4-1.1l0,0c0.1,0.1,0.2,0.1,0.3,0.2l0,0l0,0c0.1,0.1,0.2,0.1,0.3,0.2l0,0l0,0c0.1,0,0.2,0.1,0.3,0.1l0,0l0,0c0.1,0,0.2,0,0.3,0
			l0,0l0,0c0.1,0,0.3,0,0.4-0.1l0,0l0,0c0.1,0,0.3-0.1,0.4-0.3l0,0l0,0c0.1-0.1,0.3-0.3,0.4-0.6l0,0l0,0c0.1-0.2,0.3-0.6,0.5-1l0,0
			l-1.9-4.7l0,0c-0.1-0.3-0.3-0.7-0.5-1l0,0l0,0c-0.2-0.4-0.4-0.8-0.7-1.4l0,0h1.4l2.2,5.6l0,0c0.1-0.2,0.2-0.5,0.3-0.8l0,0l0,0
			c0.1-0.3,0.2-0.6,0.3-0.9l0,0l0,0c0.1-0.3,0.2-0.6,0.3-0.9l0,0l0,0c0.1-0.3,0.2-0.6,0.3-0.9l0,0l0,0c0.2-0.7,0.5-1.4,0.7-2l0,0
			h1.4l0,0c-0.1,0.3-0.2,0.5-0.3,0.7l0,0l0,0c-0.1,0.2-0.2,0.4-0.3,0.6l0,0l0,0c-0.1,0.2-0.2,0.4-0.2,0.5l0,0l0,0
			C50.5-55.2,50.4-55,50.4-54.9C50.4-54.9,50.4-54.9,50.4-54.9z M54.1-61.3v7.7l0,0c0,0.2,0,0.5,0,0.8l0,0l0,0c0,0.3,0,0.6,0,0.9
			l0,0l0,0c0,0.3,0,0.6,0,0.9l0,0l0,0c0,0.3,0,0.5,0.1,0.7l0,0h-1.4v-7.7l0,0c0-0.7,0-1.3,0-1.8l0,0l0,0c0-0.5-0.1-1-0.1-1.4l0,0
			L54.1-61.3L54.1-61.3z M57.3-53.8L57.3-53.8L57.3-53.8c0,0.4,0,0.7,0.1,1.1l0,0l0,0c0.1,0.3,0.2,0.6,0.4,0.8l0,0l0,0
			c0.2,0.2,0.4,0.4,0.6,0.5l0,0l0,0c0.2,0.1,0.5,0.2,0.8,0.2l0,0l0,0c0.3,0,0.5-0.1,0.8-0.2l0,0l0,0c0.2-0.1,0.4-0.3,0.6-0.5l0,0
			l0,0c0.2-0.2,0.3-0.5,0.4-0.8l0,0l0,0c0.1-0.3,0.2-0.7,0.2-1.1l0,0l0,0c0-0.4,0-0.8-0.2-1.1l0,0l0,0c-0.1-0.3-0.2-0.6-0.4-0.8l0,0
			l0,0c-0.2-0.2-0.4-0.4-0.6-0.5l0,0l0,0c-0.2-0.1-0.5-0.2-0.8-0.2l0,0l0,0c-0.3,0-0.5,0.1-0.8,0.2l0,0l0,0
			c-0.2,0.1-0.4,0.3-0.6,0.5l0,0l0,0c-0.2,0.2-0.3,0.5-0.4,0.8l0,0l0,0C57.3-54.5,57.3-54.2,57.3-53.8z M56-53.8L56-53.8L56-53.8
			c0-0.6,0.1-1.1,0.3-1.6l0,0l0,0c0.2-0.5,0.4-0.8,0.7-1.2l0,0l0,0c0.3-0.3,0.7-0.6,1.1-0.7l0,0l0,0c0.4-0.2,0.8-0.2,1.3-0.2l0,0
			l0,0c0.5,0,0.9,0.1,1.3,0.2l0,0l0,0c0.4,0.2,0.7,0.4,1,0.7l0,0l0,0c0.3,0.3,0.5,0.7,0.7,1.2l0,0l0,0c0.2,0.5,0.2,1,0.2,1.6l0,0
			l0,0c0,0.6-0.1,1.1-0.3,1.6l0,0l0,0c-0.2,0.4-0.4,0.8-0.7,1.1l0,0l0,0c-0.3,0.3-0.7,0.5-1.1,0.7l0,0l0,0c-0.4,0.2-0.8,0.2-1.3,0.2
			l0,0l0,0c-0.5,0-0.9-0.1-1.3-0.2l0,0l0,0c-0.4-0.2-0.7-0.4-1-0.7l0,0l0,0c-0.3-0.3-0.5-0.7-0.7-1.1l0,0l0,0
			C56.1-52.7,56-53.2,56-53.8L56-53.8z M65.5-50.3h-1.3v-4.2l0,0c0-0.7,0-1.3-0.1-1.7l0,0l0,0c-0.1-0.5-0.2-0.8-0.2-1l0,0h1.2l0,0
			c0,0.1,0.1,0.2,0.1,0.3l0,0l0,0c0,0.1,0.1,0.2,0.1,0.4l0,0l0,0c0,0.1,0,0.2,0.1,0.4l0,0l0.1,0.3l0,0c0.2-0.2,0.3-0.5,0.5-0.6l0,0
			l0,0c0.2-0.2,0.4-0.3,0.6-0.5l0,0l0,0c0.2-0.1,0.4-0.2,0.6-0.3l0,0l0,0c0.2-0.1,0.4-0.1,0.5-0.1l0,0l0,0c0.3,0,0.5,0.1,0.7,0.2
			l0,0l0,0c0.2,0.1,0.4,0.3,0.5,0.5l0,0l0,0c0.1,0.2,0.2,0.5,0.3,0.7l0,0l0,0c0.1,0.3,0.1,0.6,0.1,0.9l0,0l-1.1,0.2l0,0
			c0-0.2,0-0.3-0.1-0.5l0,0l0,0c0-0.2-0.1-0.3-0.1-0.4l0,0l0,0c-0.1-0.1-0.1-0.2-0.2-0.3l0,0l0,0c-0.1-0.1-0.2-0.1-0.3-0.1l0,0l0,0
			c-0.1,0-0.3,0.1-0.5,0.2l0,0l0,0c-0.2,0.1-0.4,0.3-0.5,0.4l0,0l0,0c-0.2,0.2-0.3,0.4-0.5,0.6l0,0l0,0c-0.1,0.2-0.3,0.5-0.3,0.7
			l0,0V-50.3z"/>
	</g>
	<g id="fe52f8f1-4021-448e-b7aa-2231e1fcad70" transform="matrix(1.52479 0 0 1.52479 40 125.603)">
		
			<linearGradient id="svg_3_00000156583077912931166460000010758582017869019524_" gradientUnits="userSpaceOnUse" x1="-121.5597" y1="204.9416" x2="-120.5597" y2="204.9416" gradientTransform="matrix(22.2905 11.5155 10.3942 -24.6951 564.3824 6391.8418)">
			<stop  offset="0" style="stop-color:#EB6E00"/>
			<stop  offset="1" style="stop-color:#F3BCE6"/>
		</linearGradient>
		<path id="svg_3" style="fill:url(#svg_3_00000156583077912931166460000010758582017869019524_);" d="M-13.4-59.5l8.1,4.5l8.1-4.5
			v-8.9l-8.1-4.5l-8.1,4.5V-59.5z"/>
		
			<linearGradient id="svg_4_00000070104835787600491900000012930565316707134645_" gradientUnits="userSpaceOnUse" x1="-124.5176" y1="207.3736" x2="-123.5176" y2="207.3736" gradientTransform="matrix(44.2217 20.6209 20.6209 -44.2217 1203.9236 11665.0957)">
			<stop  offset="0" style="stop-color:#EB6E00"/>
			<stop  offset="1" style="stop-color:#F3BCE6"/>
		</linearGradient>
		<path id="svg_4" style="fill:url(#svg_4_00000070104835787600491900000012930565316707134645_);" d="M9-80h-32v32H9L4-53.2h-21.9
			v-21.7H4C4-74.8,9-80,9-80z"/>
	</g>
	<g id="a43dea47-eb18-4e4d-aadd-4122830f6a0d" transform="matrix(0.573463 0 0 0.573463 101.587 159.538)">
		<path id="svg_5" class="st0" d="M-56.6-205.8L-58-202h2.7L-56.6-205.8z M-58-198.3h-2.7l0-0.3l1-0.2l3-8.1l0.4-0.1l2.8,8.2
			l0.9,0.1l-0.1,0.3h-2.8l0.1-0.3l1.1-0.2l-1-2.8h-3l-1,2.8l1.2,0.1L-58-198.3L-58-198.3z M-43.7-206.4l-1.2-0.2l0-0.3h3.1l0,0.3
			l-1.1,0.2v4.7l0,0c0,0.6,0.1,1.1,0.2,1.5l0,0l0,0c0.1,0.4,0.3,0.7,0.5,1l0,0l0,0c0.2,0.2,0.5,0.4,0.8,0.5l0,0l0,0
			c0.3,0.1,0.6,0.2,1,0.2l0,0l0,0c0.8,0,1.4-0.2,1.8-0.7l0,0l0,0c0.4-0.5,0.6-1.2,0.6-2.1l0,0v-5l-1.3-0.2l0-0.3h2.9l-0.1,0.3
			l-1.1,0.2l0,4.7l0,0c0,1.2-0.3,2-0.8,2.6l0,0l0,0c-0.5,0.6-1.3,0.9-2.4,0.9l0,0l0,0c-0.3,0-0.6,0-0.9-0.1l0,0l0,0
			c-0.3-0.1-0.6-0.2-0.8-0.3l0,0l0,0c-0.3-0.2-0.5-0.4-0.7-0.6l0,0l0,0c-0.2-0.2-0.3-0.6-0.4-1l0,0l0,0c-0.1-0.4-0.2-0.8-0.2-1.4
			l0,0C-43.7-201.5-43.7-206.4-43.7-206.4z M-28.6-204.7l-0.1-2.2h7.1l-0.2,2.3l-0.3,0l-0.1-1.9h-2.5v7.7l1.2,0.2l-0.1,0.3h-3.1
			l0-0.3l1.2-0.2v-7.7H-28l-0.2,1.9C-28.2-204.6-28.6-204.7-28.6-204.7z M-13.1-203L-13.1-203L-13.1-203c0,0.9,0.1,1.6,0.4,2.3l0,0
			l0,0c0.2,0.7,0.6,1.2,1.1,1.6l0,0l0,0c0.5,0.4,1,0.6,1.7,0.6l0,0l0,0c0.4,0,0.7-0.1,1.1-0.2l0,0l0,0c0.3-0.1,0.6-0.3,0.8-0.6l0,0
			l0,0c0.2-0.2,0.4-0.5,0.6-0.8l0,0l0,0c0.2-0.3,0.3-0.7,0.4-1l0,0l0,0c0.1-0.3,0.1-0.7,0.1-1l0,0l0,0c0-1.3-0.3-2.4-0.8-3.2l0,0
			l0,0c-0.6-0.8-1.3-1.2-2.3-1.2l0,0l0,0c-0.4,0-0.7,0.1-1.1,0.2l0,0l0,0c-0.3,0.1-0.6,0.3-0.8,0.6l0,0l0,0
			c-0.2,0.2-0.4,0.5-0.6,0.8l0,0l0,0c-0.2,0.3-0.3,0.6-0.3,1l0,0l0,0C-13-203.7-13.1-203.4-13.1-203z M-13.8-202.6L-13.8-202.6
			L-13.8-202.6c0-1.3,0.4-2.4,1.1-3.2l0,0l0,0c0.7-0.8,1.7-1.2,2.9-1.2l0,0l0,0c0.8,0,1.4,0.2,2,0.6l0,0l0,0
			c0.5,0.4,0.9,0.9,1.2,1.6l0,0l0,0c0.3,0.7,0.4,1.4,0.4,2.3l0,0l0,0c0,0.4-0.1,0.9-0.2,1.3l0,0l0,0c-0.1,0.4-0.3,0.8-0.5,1.2l0,0
			l0,0c-0.2,0.4-0.5,0.7-0.8,1l0,0l0,0c-0.3,0.3-0.7,0.5-1.1,0.7l0,0l0,0c-0.5,0.2-0.9,0.3-1.5,0.3l0,0l0,0c-0.7,0-1.3-0.2-1.9-0.6
			l0,0l0,0c-0.5-0.4-1-0.9-1.2-1.6l0,0l0,0C-13.7-201-13.8-201.8-13.8-202.6z M4.3-198.3H1.5l0-0.2l1.1-0.2l0.6-7.6L2-206.6l0-0.2
			h2.2l0.5,1.3l2.1,5.7l2.5-6l0.4-1h2.2l0,0.2l-1.2,0.2l0.4,7.7l1.2,0.1l0,0.3H9.1l0-0.2l1.2-0.2l-0.4-7.6l-3.2,7.6l-0.3,0.1
			l-2.8-7.5l-0.5,7.5l1.2,0.1L4.3-198.3L4.3-198.3z M24.1-205.8l-1.4,3.8h2.7L24.1-205.8z M22.7-198.3H20l0-0.3l1-0.2l3-8.1l0.4-0.1
			l2.8,8.2l0.9,0.1l-0.1,0.3h-2.8l0.1-0.3l1.1-0.2l-0.9-2.8h-2.9l-1,2.8l1.3,0.1L22.7-198.3L22.7-198.3z M35.9-204.7l-0.1-2.2h7.1
			l-0.2,2.3l-0.3,0l-0.1-1.9h-2.5v7.7l1.2,0.2l-0.1,0.3h-3.1l0-0.3l1.2-0.2v-7.7h-2.4l-0.2,1.9C36.2-204.6,35.9-204.7,35.9-204.7z
			 M51.8-206.4l-1.2-0.2l0.1-0.3h6.2l-0.2,2.2l-0.3,0l-0.1-1.8h-3.7v3.6h2.3l0.3-0.9l0.4-0.1l-0.2,2.7l-0.3,0.1l-0.1-1.4h-2.2v3.8
			h3.8l0.5-1.8l0.3,0.1l-0.2,2.1h-6.3l0-0.3l1.2-0.2L51.8-206.4L51.8-206.4z M76-206.4l-1.2-0.2l0-0.3H81l-0.2,2.2l-0.3,0l-0.1-1.8
			h-3.6v3.6H79l0.2-0.9l0.4-0.1l-0.2,2.7l-0.4,0.1l-0.1-1.4h-2.2v3.8h3.8l0.5-1.8l0.3,0.1l-0.2,2.1h-6.3l0-0.3l1.2-0.2L76-206.4
			L76-206.4z M90-206.4l-1-0.2l0-0.2h2.9l0,0.2l-1.1,0.2l2.4,7l2.6-7l-1.3-0.2l0-0.2h2.7l0,0.2l-0.9,0.2l-3,8.1l-0.4,0.1
			C92.8-198.2,90-206.4,90-206.4z M106-206.4l-1.2-0.2l0.1-0.3h6.2l-0.2,2.2l-0.3,0l-0.1-1.8h-3.6v3.6h2.3l0.2-0.9l0.4-0.1l-0.2,2.7
			l-0.3,0.1l-0.1-1.4h-2.2v3.8h3.8l0.5-1.8l0.3,0.1l-0.2,2.1h-6.3l0.1-0.3l1.2-0.2V-206.4L106-206.4z M120.9-206.6v3.9h1.6l0,0
			c0.5-0.2,0.8-0.4,1.1-0.8l0,0l0,0c0.3-0.4,0.5-0.8,0.5-1.3l0,0l0,0c0-0.6-0.2-1.1-0.6-1.4l0,0l0,0c-0.4-0.3-1-0.5-1.7-0.5l0,0
			L120.9-206.6z M122.3-198.3h-3.2l0-0.3l1.1-0.2v-7.4l-1.1-0.1l0.1-0.2l0,0c1.2-0.2,2.2-0.3,2.9-0.3l0,0l0,0c0.5,0,1,0.1,1.4,0.2
			l0,0l0,0c0.4,0.1,0.7,0.4,1,0.7l0,0l0,0c0.3,0.3,0.4,0.7,0.4,1.1l0,0l0,0c0,0.5-0.1,0.9-0.4,1.3l0,0l0,0c-0.3,0.4-0.8,0.8-1.5,1.1
			l0,0l0,0l1.3,2l0,0c0.5,0.7,0.8,1.2,1.1,1.4l0,0l0,0c0.2,0.2,0.5,0.4,0.7,0.5l0,0l0.3,0.1l0,0.3l0,0c-0.2,0.1-0.4,0.1-0.6,0.1l0,0
			l0,0c-0.2,0-0.4,0-0.5-0.1l0,0l0,0c-0.2-0.1-0.3-0.2-0.5-0.4l0,0l0,0c-0.2-0.2-0.3-0.3-0.4-0.5l0,0l0,0c-0.1-0.2-0.3-0.4-0.4-0.7
			l0,0l-1.4-2.3h-1.5v3.5l1.4,0.1C122.4-198.7,122.3-198.3,122.3-198.3z M135-206.4l-0.9-0.2l0-0.2h2.9l0,0.2l-1.1,0.2l2.1,4.2
			l2.1-4.1l-1.3-0.2l0-0.2h2.7l0,0.2l-0.9,0.2l-2.4,4.7v2.9l1.2,0.1l-0.1,0.3h-3.1l0-0.3l1.2-0.2v-2.9L135-206.4z M149.2-204.7
			l-0.1-2.2h7.1l-0.2,2.3l-0.3,0l-0.1-1.9H153v7.7l1.2,0.2l-0.1,0.3H151l0-0.3l1.2-0.2v-7.7h-2.4l-0.2,1.9
			C149.5-204.6,149.2-204.7,149.2-204.7z M165.1-206.4l-1.2-0.2l0-0.3h3.1l0,0.3l-1.2,0.2v3.6h4.9v-3.6l-1.3-0.2l0.1-0.3h3.1
			l-0.1,0.3l-1.1,0.2v7.6l1.2,0.1l0,0.3h-3.1l0.1-0.3l1.1-0.2v-3.5h-4.9v3.6l1.3,0.1l-0.1,0.3h-3.1l0-0.3l1.1-0.2L165.1-206.4
			L165.1-206.4z M181.6-206.4l-1.2-0.2l0.1-0.3h3.1l-0.1,0.3l-1.2,0.2v7.6l1.3,0.1l-0.1,0.3h-3.1l0-0.3l1.1-0.2
			C181.6-198.8,181.6-206.4,181.6-206.4z M192.6-206.4l-1.3-0.2l0.1-0.2h2.1l4.7,7.3v-6.8l-1.3-0.2l0.1-0.3h2.9l-0.1,0.3l-1.1,0.2
			v8.1l-0.4,0.1l-5.2-7.9v7.3l1.2,0.1l-0.1,0.3h-2.9l0-0.3l1.1-0.2L192.6-206.4L192.6-206.4z M207.6-202.5L207.6-202.5L207.6-202.5
			c0-0.4,0.1-0.8,0.2-1.3l0,0l0,0c0.1-0.4,0.3-0.8,0.5-1.2l0,0l0,0c0.2-0.4,0.5-0.7,0.8-1l0,0l0,0c0.3-0.3,0.7-0.5,1.1-0.7l0,0l0,0
			c0.4-0.2,0.9-0.3,1.4-0.3l0,0l0,0c0.5,0,1,0.1,1.4,0.2l0,0l0,0c0.5,0.1,0.9,0.3,1.2,0.5l0,0l-0.2,2.2l-0.3,0l-0.2-1.6l0,0
			c-0.2-0.2-0.5-0.4-0.8-0.6l0,0l0,0c-0.4-0.2-0.8-0.2-1.3-0.2l0,0l0,0c-0.9,0-1.7,0.4-2.2,1.1l0,0l0,0c-0.6,0.7-0.8,1.7-0.8,2.8
			l0,0l0,0c0,0.4,0,0.8,0.1,1.2l0,0l0,0c0.1,0.4,0.2,0.7,0.4,1.1l0,0l0,0c0.2,0.4,0.4,0.7,0.6,0.9l0,0l0,0c0.3,0.3,0.6,0.5,1,0.6
			l0,0l0,0c0.4,0.2,0.8,0.2,1.3,0.2l0,0l0,0c0.7,0,1.3-0.2,1.8-0.5l0,0l0-2.6l-1.6-0.2l0-0.3h3.3l0,0.3l-0.9,0.1v2.9l0,0
			c-0.4,0.3-0.9,0.4-1.4,0.5l0,0l0,0c-0.5,0.1-1.1,0.1-1.8,0.1l0,0l0,0c-0.5,0-0.9-0.1-1.3-0.3l0,0l0,0c-0.4-0.2-0.8-0.5-1.1-0.8
			l0,0l0,0c-0.3-0.4-0.6-0.8-0.8-1.4l0,0l0,0C207.7-201.2,207.6-201.8,207.6-202.5L207.6-202.5z"/>
	</g>
</g>
</svg>
